<svg width="18" height="17" viewBox="0 0 18 17" fill="none" xmlns="http://www.w3.org/2000/svg">
<path d="M16 1H2C1.44772 1 1 1.44772 1 2V15C1 15.5523 1.44772 16 2 16H16C16.5523 16 17 15.5523 17 15V2C17 1.44772 16.5523 1 16 1Z" fill="#F7EFDA" stroke="black" stroke-width="0.5"/>
<path d="M7.70711 13.2929C7.07714 13.9229 7.52331 15 8.41421 15H14.238C15.1732 15 15.5966 13.8305 14.8781 13.2318L11.7016 10.5846C11.3042 10.2535 10.72 10.28 10.3543 10.6457L7.70711 13.2929Z" fill="black" stroke="black" stroke-width="0.5"/>
<path d="M3.76205 10H9.58579C10.4767 10 10.9229 11.0771 10.2929 11.7071L7.64574 14.3543C7.28002 14.72 6.69578 14.7465 6.29845 14.4154L3.12187 11.7682C2.40335 11.1695 2.82675 10 3.76205 10Z" fill="#F7EFDA" stroke="black" stroke-width="0.5"/>
<path d="M9.75 5.5C9.75 7.29493 8.29493 8.75 6.5 8.75C4.70507 8.75 3.25 7.29493 3.25 5.5C3.25 3.70507 4.70507 2.25 6.5 2.25C8.29493 2.25 9.75 3.70507 9.75 5.5Z" fill="black" stroke="black" stroke-width="0.5"/>
<path d="M14.75 5.5C14.75 7.29493 13.2949 8.75 11.5 8.75C9.70507 8.75 8.25 7.29493 8.25 5.5C8.25 3.70507 9.70507 2.25 11.5 2.25C13.2949 2.25 14.75 3.70507 14.75 5.5Z" fill="#F7EFDA" stroke="black" stroke-width="0.5"/>
</svg>
