<svg width="81" height="29" viewBox="0 0 81 29" fill="none" xmlns="http://www.w3.org/2000/svg">
<path d="M6.70711 21.2929C6.07714 21.9229 6.52331 23 7.41421 23H13.238C14.1732 23 14.5966 21.8305 13.8781 21.2318L10.7016 18.5846C10.3042 18.2535 9.71998 18.28 9.35426 18.6457L6.70711 21.2929Z" fill="#f7efda" stroke="#f7efda" stroke-width="0.5"/>
<path d="M2.76205 18H8.58579C9.47669 18 9.92286 19.0771 9.29289 19.7071L6.64574 22.3543C6.28002 22.72 5.69578 22.7465 5.29845 22.4154L2.12187 19.7682C1.40335 19.1695 1.82675 18 2.76205 18Z" stroke="#f7efda" stroke-width="0.5"/>
<path d="M13.75 13.5C13.75 15.2949 12.2949 16.75 10.5 16.75C8.70507 16.75 7.25 15.2949 7.25 13.5C7.25 11.7051 8.70507 10.25 10.5 10.25C12.2949 10.25 13.75 11.7051 13.75 13.5Z" stroke="#f7efda" stroke-width="0.5"/>
<path d="M8.75 13.5C8.75 15.2949 7.29493 16.75 5.5 16.75C3.70507 16.75 2.25 15.2949 2.25 13.5C2.25 11.7051 3.70507 10.25 5.5 10.25C7.29493 10.25 8.75 11.7051 8.75 13.5Z" fill="#f7efda" stroke="#f7efda" stroke-width="0.5"/>
<path d="M55.77 17.15L56.57 17.55C56.6367 18.01 56.67 18.4033 56.67 18.73C56.67 19.05 56.6667 19.2767 56.66 19.41C56.9333 18.73 57.2667 18.1733 57.66 17.74C58.06 17.3067 58.42 17.09 58.74 17.09C59.3467 17.09 59.65 17.4667 59.65 18.22C59.65 18.9133 59.41 19.6333 58.93 20.38C58.69 20.7533 58.35 21.1033 57.91 21.43C57.4767 21.7567 56.9767 22.0167 56.41 22.21C56.2967 23.01 56.1467 23.8 55.96 24.58C55.8467 24.6933 55.7067 24.75 55.54 24.75C55.4867 24.75 55.46 24.7333 55.46 24.7C55.76 23.3067 55.91 21.9567 55.91 20.65C55.91 19.3433 55.78 18.2333 55.52 17.32L55.77 17.15ZM56.56 21.08H56.55L56.49 21.65C57.2167 21.3967 57.7667 21.0133 58.14 20.5C58.52 19.9867 58.71 19.49 58.71 19.01C58.71 18.53 58.5433 18.29 58.21 18.29C57.9433 18.29 57.65 18.5367 57.33 19.03C57.01 19.5233 56.7533 20.2067 56.56 21.08ZM63.1309 17.42L63.9409 17.07L64.1809 17.21C63.9609 17.8567 63.8509 18.6033 63.8509 19.45C63.8509 19.81 63.8809 20.31 63.9409 20.95C64.0009 21.59 64.0576 22.0233 64.1109 22.25C64.1109 22.27 64.0609 22.28 63.9609 22.28C63.8609 22.28 63.7643 22.2333 63.6709 22.14C63.4576 21.6467 63.2876 20.92 63.1609 19.96C62.8809 20.6267 62.5443 21.17 62.1509 21.59C61.7643 22.01 61.4143 22.22 61.1009 22.22C60.5009 22.22 60.2009 21.8433 60.2009 21.09C60.2009 20.6567 60.2876 20.24 60.4609 19.84C60.6343 19.44 60.8676 19.09 61.1609 18.79C61.7476 18.1967 62.4043 17.74 63.1309 17.42ZM61.6409 21.02C61.8543 21.02 62.0909 20.85 62.3509 20.51C62.6176 20.1633 62.8543 19.6767 63.0609 19.05C63.0543 18.9567 63.0509 18.7767 63.0509 18.51C63.0509 18.2433 63.0543 18.0467 63.0609 17.92C62.4876 18.2467 62.0243 18.5967 61.6709 18.97C61.3176 19.3367 61.1409 19.77 61.1409 20.27C61.1409 20.77 61.3076 21.02 61.6409 21.02ZM65.4282 17.15L66.2282 17.55C66.2949 18.01 66.3282 18.4033 66.3282 18.73C66.3282 19.05 66.3249 19.2767 66.3182 19.41C66.5915 18.73 66.9249 18.1733 67.3182 17.74C67.7182 17.3067 68.0782 17.09 68.3982 17.09C69.0049 17.09 69.3082 17.4667 69.3082 18.22C69.3082 18.9133 69.0682 19.6333 68.5882 20.38C68.3482 20.7533 68.0082 21.1033 67.5682 21.43C67.1349 21.7567 66.6349 22.0167 66.0682 22.21C65.9549 23.01 65.8049 23.8 65.6182 24.58C65.5049 24.6933 65.3649 24.75 65.1982 24.75C65.1449 24.75 65.1182 24.7333 65.1182 24.7C65.4182 23.3067 65.5682 21.9567 65.5682 20.65C65.5682 19.3433 65.4382 18.2333 65.1782 17.32L65.4282 17.15ZM66.2182 21.08H66.2082L66.1482 21.65C66.8749 21.3967 67.4249 21.0133 67.7982 20.5C68.1782 19.9867 68.3682 19.49 68.3682 19.01C68.3682 18.53 68.2015 18.29 67.8682 18.29C67.6015 18.29 67.3082 18.5367 66.9882 19.03C66.6682 19.5233 66.4115 20.2067 66.2182 21.08ZM72.7891 17.42L73.5991 17.07L73.8391 17.21C73.6191 17.8567 73.5091 18.6033 73.5091 19.45C73.5091 19.81 73.5391 20.31 73.5991 20.95C73.6591 21.59 73.7158 22.0233 73.7691 22.25C73.7691 22.27 73.7191 22.28 73.6191 22.28C73.5191 22.28 73.4225 22.2333 73.3291 22.14C73.1158 21.6467 72.9458 20.92 72.8191 19.96C72.5391 20.6267 72.2025 21.17 71.8091 21.59C71.4225 22.01 71.0725 22.22 70.7591 22.22C70.1591 22.22 69.8591 21.8433 69.8591 21.09C69.8591 20.6567 69.9458 20.24 70.1191 19.84C70.2925 19.44 70.5258 19.09 70.8191 18.79C71.4058 18.1967 72.0625 17.74 72.7891 17.42ZM71.2991 21.02C71.5125 21.02 71.7491 20.85 72.0091 20.51C72.2758 20.1633 72.5125 19.6767 72.7191 19.05C72.7125 18.9567 72.7091 18.7767 72.7091 18.51C72.7091 18.2433 72.7125 18.0467 72.7191 17.92C72.1458 18.2467 71.6825 18.5967 71.3291 18.97C70.9758 19.3367 70.7991 19.77 70.7991 20.27C70.7991 20.77 70.9658 21.02 71.2991 21.02ZM76.0664 17.54C76.0797 17.74 76.0864 17.9467 76.0864 18.16C76.0864 19.32 75.8831 20.5967 75.4764 21.99C75.3831 22.0833 75.2564 22.13 75.0964 22.13C75.0631 22.13 75.0397 22.1267 75.0264 22.12C75.0197 22.1133 75.0197 22.1033 75.0264 22.09C75.1864 21.1367 75.2664 20.26 75.2664 19.46C75.2664 18.66 75.1831 17.94 75.0164 17.3L75.2564 17.15L76.0664 17.54ZM75.6564 16.55C75.4897 16.55 75.3597 16.4933 75.2664 16.38C75.1797 16.2667 75.1364 16.1233 75.1364 15.95C75.1364 15.7767 75.2131 15.6267 75.3664 15.5C75.5197 15.3667 75.7431 15.28 76.0364 15.24C76.2364 15.4067 76.3364 15.6067 76.3364 15.84C76.3364 16.0667 76.2664 16.2433 76.1264 16.37C75.9864 16.49 75.8297 16.55 75.6564 16.55ZM80.0809 17.28L79.7609 18.17C79.4542 17.97 79.1509 17.87 78.8509 17.87C78.3575 17.87 78.1109 18.06 78.1109 18.44C78.1109 18.7 78.3175 19.0033 78.7309 19.35C78.9109 19.4967 79.0875 19.65 79.2609 19.81C79.6742 20.19 79.8809 20.5733 79.8809 20.96C79.8809 21.26 79.7675 21.5467 79.5409 21.82C79.4142 21.9667 79.2075 22.0833 78.9209 22.17C78.6409 22.2633 78.3175 22.31 77.9509 22.31C77.5842 22.31 77.2542 22.2633 76.9609 22.17C76.9275 22.1433 76.8875 22.0833 76.8409 21.99C76.8009 21.89 76.7809 21.82 76.7809 21.78C76.7809 21.74 76.7875 21.72 76.8009 21.72C76.8209 21.72 76.8709 21.73 76.9509 21.75C77.1509 21.8033 77.4042 21.83 77.7109 21.83C78.0175 21.83 78.2742 21.7633 78.4809 21.63C78.6942 21.4967 78.8009 21.3267 78.8009 21.12C78.8009 20.9133 78.7142 20.71 78.5409 20.51C78.3742 20.31 78.1875 20.13 77.9809 19.97C77.7809 19.81 77.5942 19.6133 77.4209 19.38C77.2542 19.14 77.1709 18.9 77.1709 18.66C77.1709 18.4467 77.2409 18.2567 77.3809 18.09C77.5275 17.9167 77.6942 17.7733 77.8809 17.66C78.3342 17.3933 78.9942 17.2033 79.8609 17.09L80.0809 17.28Z" fill="#f7efda"/>
<path d="M15.8 23.52C15.04 23.2933 14.5267 23.0733 14.26 22.86C13.9933 22.66 13.86 22.38 13.86 22.02C13.86 21.62 13.9533 21.06 14.14 20.34C14.3267 19.6067 14.5667 18.7933 14.86 17.9C15.1667 17.0067 15.5133 16.0733 15.9 15.1C16.2867 14.1267 16.68 13.1933 17.08 12.3C17.48 11.4067 17.8667 10.5933 18.24 9.86C18.6267 9.11333 18.9667 8.53333 19.26 8.12L19.12 7.28C19.3067 7.28 19.5667 7.32667 19.9 7.42C20.2333 7.51333 20.5667 7.62667 20.9 7.76C21.2467 7.89333 21.5467 8.03333 21.8 8.18C22.0667 8.31333 22.2133 8.42667 22.24 8.52C22.1733 8.84 22.12 9.32667 22.08 9.98C22.04 10.62 22.02 11.3067 22.02 12.04C22.02 13.4933 22.0733 14.92 22.18 16.32C22.3 17.7067 22.5667 19.12 22.98 20.56C23.1933 19.4933 23.42 18.4333 23.66 17.38C23.9133 16.3133 24.1733 15.3 24.44 14.34C24.7067 13.3667 24.9733 12.4667 25.24 11.64C25.5067 10.8133 25.76 10.0933 26 9.48C26.2533 8.85333 26.4867 8.36667 26.7 8.02C26.9133 7.66 27.1067 7.46667 27.28 7.44C27.4267 7.46667 27.5867 7.52667 27.76 7.62C27.9333 7.7 28.1 7.8 28.26 7.92C28.42 8.04 28.5667 8.17333 28.7 8.32C28.8333 8.46667 28.94 8.61333 29.02 8.76C28.5933 8.93333 28.1667 9.34 27.74 9.98C27.3267 10.62 26.9267 11.4 26.54 12.32C26.1667 13.2267 25.8133 14.2133 25.48 15.28C25.16 16.3467 24.8733 17.4 24.62 18.44C24.38 19.4667 24.1867 20.42 24.04 21.3C23.9067 22.18 23.8333 22.8867 23.82 23.42C23.82 23.4467 23.8267 23.4667 23.84 23.48C23.8 23.4933 23.7533 23.5 23.7 23.5C23.66 23.5 23.62 23.5 23.58 23.5C22.9667 23.5 22.42 23.42 21.94 23.26C21.4733 23.1133 21.1667 22.9 21.02 22.62C20.74 21.5 20.5067 20.42 20.32 19.38C20.1333 18.34 19.9733 17.3 19.84 16.26C19.72 15.22 19.62 14.1733 19.54 13.12C19.4733 12.0533 19.42 10.94 19.38 9.78C19.1267 10.18 18.86 10.7067 18.58 11.36C18.3 12 18.0267 12.7067 17.76 13.48C17.4933 14.2533 17.2333 15.0667 16.98 15.92C16.74 16.7733 16.5267 17.6067 16.34 18.42C16.1533 19.2333 16.0067 20.0067 15.9 20.74C15.7933 21.46 15.74 22.0867 15.74 22.62C15.74 22.9 15.74 23.1 15.74 23.22C15.7533 23.34 15.7733 23.44 15.8 23.52ZM34.0041 13.92C34.1374 13.92 34.2907 13.9467 34.4641 14C34.6507 14.04 34.8174 14.1 34.9641 14.18C35.1107 14.2467 35.2307 14.32 35.3241 14.4C35.4307 14.48 35.4841 14.5533 35.4841 14.62C35.2174 15.18 34.9707 15.7467 34.7441 16.32C34.5174 16.88 34.3241 17.42 34.1641 17.94C34.0041 18.46 33.8774 18.9467 33.7841 19.4C33.7041 19.8533 33.6641 20.2467 33.6641 20.58C33.6641 20.9533 33.7041 21.2667 33.7841 21.52C33.8641 21.76 33.9974 21.9333 34.1841 22.04C34.0241 22.1467 33.8174 22.2333 33.5641 22.3C33.3107 22.3667 33.0841 22.4 32.8841 22.4C32.1641 22.4 31.8041 21.9067 31.8041 20.92C31.8041 20.16 32.0574 19.12 32.5641 17.8C32.2974 18.4133 31.9907 18.9933 31.6441 19.54C31.2974 20.0733 30.9441 20.5467 30.5841 20.96C30.2241 21.3733 29.8574 21.7133 29.4841 21.98C29.1241 22.2333 28.7907 22.3867 28.4841 22.44C27.9907 22.4133 27.5907 22.18 27.2841 21.74C26.9774 21.2867 26.8241 20.7133 26.8241 20.02C26.8241 19.2733 26.9841 18.4867 27.3041 17.66C27.6241 16.8333 28.0307 16.0667 28.5241 15.36C29.0307 14.6533 29.5774 14.0667 30.1641 13.6C30.7507 13.12 31.3174 12.8667 31.8641 12.84C31.9974 12.88 32.1441 12.96 32.3041 13.08C32.4774 13.2 32.6374 13.34 32.7841 13.5C32.9441 13.66 33.0774 13.8267 33.1841 14C33.2907 14.16 33.3507 14.3 33.3641 14.42C32.8307 14.5 32.2774 14.76 31.7041 15.2C31.1441 15.64 30.6307 16.1733 30.1641 16.8C29.7107 17.4133 29.3374 18.0733 29.0441 18.78C28.7507 19.4867 28.6041 20.1467 28.6041 20.76C28.6041 21.0133 28.6974 21.1733 28.8841 21.24C29.2707 21.16 29.7174 20.8333 30.2241 20.26C30.7307 19.6733 31.3441 18.7733 32.0641 17.56C32.1974 17.32 32.3441 17.0533 32.5041 16.76C32.6774 16.4667 32.8507 16.16 33.0241 15.84C33.1974 15.52 33.3641 15.2 33.5241 14.88C33.6974 14.5467 33.8574 14.2267 34.0041 13.92ZM39.7386 12.3C40.0853 12.4067 40.4119 12.6467 40.7186 13.02C41.0253 13.38 41.2519 13.78 41.3986 14.22C41.2519 14.58 41.0253 15.0133 40.7186 15.52C40.4119 16.0267 40.1053 16.5467 39.7986 17.08C39.4919 17.6 39.2119 18.1 38.9586 18.58C38.7186 19.0467 38.5786 19.4333 38.5386 19.74C38.7519 19.5133 38.9853 19.2533 39.2386 18.96C39.5053 18.6533 39.7586 18.3533 39.9986 18.06C40.2519 17.7533 40.4853 17.48 40.6986 17.24C40.9119 16.9867 41.0786 16.8 41.1986 16.68C41.4519 16.4133 41.7519 16.1067 42.0986 15.76C42.4453 15.4 42.8053 15.0667 43.1786 14.76C43.5653 14.44 43.9519 14.1733 44.3386 13.96C44.7253 13.7333 45.0786 13.62 45.3986 13.62C45.7453 13.62 46.0319 13.74 46.2586 13.98C46.4986 14.2067 46.6853 14.4467 46.8186 14.7C46.8186 14.7267 46.7653 14.7667 46.6586 14.82C46.5653 14.86 46.4253 14.9867 46.2386 15.2C46.0519 15.44 45.8386 15.7733 45.5986 16.2C45.3719 16.6133 45.1453 17.0667 44.9186 17.56C44.7053 18.04 44.5253 18.5333 44.3786 19.04C44.2319 19.5467 44.1586 20.0067 44.1586 20.42C44.1586 20.7533 44.1986 20.9667 44.2786 21.06C44.3719 21.1533 44.4986 21.2 44.6586 21.2C44.8053 21.2 44.9586 21.1667 45.1186 21.1C45.2786 21.0333 45.4053 21 45.4986 21C45.5519 21.0267 45.5919 21.0867 45.6186 21.18C45.6586 21.26 45.6786 21.3333 45.6786 21.4C45.5719 21.4933 45.4453 21.5867 45.2986 21.68C45.1519 21.7733 44.9986 21.86 44.8386 21.94C44.6786 22.02 44.5186 22.0867 44.3586 22.14C44.2119 22.1933 44.0786 22.22 43.9586 22.22C43.5719 22.22 43.2519 22.16 42.9986 22.04C42.7586 21.9333 42.5653 21.7867 42.4186 21.6C42.2853 21.4133 42.1919 21.1933 42.1386 20.94C42.0853 20.6733 42.0586 20.3933 42.0586 20.1C42.0586 19.94 42.0719 19.76 42.0986 19.56C42.1253 19.36 42.1786 19.1267 42.2586 18.86C42.3386 18.58 42.4519 18.2533 42.5986 17.88C42.7453 17.4933 42.9319 17.0333 43.1586 16.5C43.1319 16.5 42.9519 16.5933 42.6186 16.78C42.2853 16.9667 41.9253 17.2533 41.5386 17.64C40.9119 18.24 40.3453 18.8333 39.8386 19.42C39.3453 20.0067 38.8386 20.66 38.3186 21.38C38.0253 21.7933 37.7653 22.14 37.5386 22.42C37.3253 22.7133 37.1386 22.9067 36.9786 23C36.6986 22.84 36.4919 22.6133 36.3586 22.32C36.2253 22.04 36.1253 21.7467 36.0586 21.44C36.0586 21.1867 36.0919 20.8667 36.1586 20.48C36.2386 20.0933 36.3386 19.6667 36.4586 19.2C36.5919 18.72 36.7519 18.22 36.9386 17.7C37.1253 17.18 37.3319 16.66 37.5586 16.14C38.0653 14.9667 38.5253 14.0467 38.9386 13.38C39.3653 12.7133 39.6319 12.3533 39.7386 12.3ZM54.1994 13.92C54.3327 13.92 54.486 13.9467 54.6594 14C54.846 14.04 55.0127 14.1 55.1594 14.18C55.306 14.2467 55.426 14.32 55.5194 14.4C55.626 14.48 55.6794 14.5533 55.6794 14.62C55.4127 15.18 55.166 15.7467 54.9394 16.32C54.7127 16.88 54.5194 17.42 54.3594 17.94C54.1994 18.46 54.0727 18.9467 53.9794 19.4C53.8994 19.8533 53.8594 20.2467 53.8594 20.58C53.8594 20.9533 53.8994 21.2667 53.9794 21.52C54.0594 21.76 54.1927 21.9333 54.3794 22.04C54.2194 22.1467 54.0127 22.2333 53.7594 22.3C53.506 22.3667 53.2794 22.4 53.0794 22.4C52.3594 22.4 51.9994 21.9067 51.9994 20.92C51.9994 20.16 52.2527 19.12 52.7594 17.8C52.4927 18.4133 52.186 18.9933 51.8394 19.54C51.4927 20.0733 51.1394 20.5467 50.7794 20.96C50.4194 21.3733 50.0527 21.7133 49.6794 21.98C49.3194 22.2333 48.986 22.3867 48.6794 22.44C48.186 22.4133 47.786 22.18 47.4794 21.74C47.1727 21.2867 47.0194 20.7133 47.0194 20.02C47.0194 19.2733 47.1794 18.4867 47.4994 17.66C47.8194 16.8333 48.226 16.0667 48.7194 15.36C49.226 14.6533 49.7727 14.0667 50.3594 13.6C50.946 13.12 51.5127 12.8667 52.0594 12.84C52.1927 12.88 52.3394 12.96 52.4994 13.08C52.6727 13.2 52.8327 13.34 52.9794 13.5C53.1394 13.66 53.2727 13.8267 53.3794 14C53.486 14.16 53.546 14.3 53.5594 14.42C53.026 14.5 52.4727 14.76 51.8994 15.2C51.3394 15.64 50.826 16.1733 50.3594 16.8C49.906 17.4133 49.5327 18.0733 49.2394 18.78C48.946 19.4867 48.7994 20.1467 48.7994 20.76C48.7994 21.0133 48.8927 21.1733 49.0794 21.24C49.466 21.16 49.9127 20.8333 50.4194 20.26C50.926 19.6733 51.5394 18.7733 52.2594 17.56C52.3927 17.32 52.5394 17.0533 52.6994 16.76C52.8727 16.4667 53.046 16.16 53.2194 15.84C53.3927 15.52 53.5594 15.2 53.7194 14.88C53.8927 14.5467 54.0527 14.2267 54.1994 13.92Z" fill="#f7efda"/>
</svg>
