<svg width="83" height="25" viewBox="0 0 83 25" fill="none" xmlns="http://www.w3.org/2000/svg">
<path d="M81 0.5H2C1.44772 0.5 1 0.947716 1 1.5V20C1 20.5523 1.44771 21 2 21H81C81.5523 21 82 20.5523 82 20V1.5C82 0.947715 81.5523 0.5 81 0.5Z" stroke="black" stroke-width="0.5"/>
<path d="M62.72 17V13.13C63.02 13.098 63.336 13.082 63.668 13.082C64.004 13.082 64.288 13.172 64.52 13.352C64.752 13.528 64.868 13.796 64.868 14.156C64.868 14.516 64.71 14.812 64.394 15.044C64.078 15.272 63.704 15.386 63.272 15.386C63.252 15.386 63.23 15.386 63.206 15.386V15.194C63.222 15.194 63.236 15.194 63.248 15.194C63.604 15.194 63.914 15.1 64.178 14.912C64.442 14.724 64.574 14.48 64.574 14.18C64.574 13.88 64.48 13.662 64.292 13.526C64.108 13.39 63.864 13.322 63.56 13.322C63.4 13.322 63.212 13.33 62.996 13.346V17H62.72ZM65.8417 15.65L65.2837 17H65.0017L66.6337 13.082H66.7957L68.4397 17H68.1337L67.5697 15.65H65.8417ZM66.6997 13.526C66.6397 13.706 66.5857 13.856 66.5377 13.976L65.9377 15.416H67.4737L66.8797 13.982C66.7877 13.758 66.7277 13.606 66.6997 13.526ZM69.2298 17V13.13C69.5298 13.098 69.8458 13.082 70.1778 13.082C70.5138 13.082 70.7978 13.172 71.0298 13.352C71.2618 13.528 71.3778 13.796 71.3778 14.156C71.3778 14.516 71.2198 14.812 70.9038 15.044C70.5878 15.272 70.2138 15.386 69.7818 15.386C69.7618 15.386 69.7398 15.386 69.7158 15.386V15.194C69.7318 15.194 69.7458 15.194 69.7578 15.194C70.1138 15.194 70.4238 15.1 70.6878 14.912C70.9518 14.724 71.0838 14.48 71.0838 14.18C71.0838 13.88 70.9898 13.662 70.8018 13.526C70.6178 13.39 70.3738 13.322 70.0698 13.322C69.9098 13.322 69.7218 13.33 69.5058 13.346V17H69.2298ZM72.3515 15.65L71.7935 17H71.5115L73.1435 13.082H73.3055L74.9495 17H74.6435L74.0795 15.65H72.3515ZM73.2095 13.526C73.1495 13.706 73.0955 13.856 73.0475 13.976L72.4475 15.416H73.9835L73.3895 13.982C73.2975 13.758 73.2375 13.606 73.2095 13.526ZM75.7395 17V13.106H76.0155V17H75.7395ZM78.2423 13.274C78.0263 13.274 77.8503 13.326 77.7143 13.43C77.5783 13.534 77.5103 13.68 77.5103 13.868C77.5103 14.084 77.6003 14.278 77.7803 14.45C77.9083 14.574 78.0723 14.706 78.2723 14.846C78.4763 14.982 78.6163 15.08 78.6923 15.14C78.7683 15.2 78.8603 15.282 78.9683 15.386C79.1643 15.582 79.2623 15.808 79.2623 16.064C79.2623 16.396 79.1503 16.648 78.9263 16.82C78.7063 16.988 78.3963 17.072 77.9963 17.072C77.6003 17.072 77.2683 16.968 77.0003 16.76L77.1443 16.55C77.4163 16.734 77.7043 16.826 78.0083 16.826C78.3123 16.826 78.5483 16.762 78.7163 16.634C78.8883 16.506 78.9743 16.326 78.9743 16.094C78.9743 15.894 78.8883 15.71 78.7163 15.542C78.5963 15.422 78.4343 15.292 78.2303 15.152C78.0303 15.012 77.8903 14.912 77.8103 14.852C77.7303 14.788 77.6363 14.704 77.5283 14.6C77.3243 14.396 77.2223 14.16 77.2223 13.892C77.2223 13.624 77.3163 13.414 77.5043 13.262C77.6963 13.11 77.9603 13.034 78.2963 13.034C78.6323 13.034 78.9343 13.1 79.2023 13.232L79.1003 13.454C78.8523 13.334 78.5663 13.274 78.2423 13.274Z" fill="black"/>
<path d="M27.864 17.288C27.768 17.368 27.68 17.384 27.6 17.336C27.52 17.304 27.552 17.216 27.696 17.072C27.936 16.832 28.16 16.448 28.368 15.92C28.576 15.376 28.8 14.72 29.04 13.952C29.28 13.184 29.568 12.344 29.904 11.432C30.24 10.504 30.648 9.544 31.128 8.552C31.624 7.56 32.216 6.576 32.904 5.6C32.952 5.536 33.008 5.488 33.072 5.456C33.136 5.408 33.16 5.416 33.144 5.48C33.144 5.496 32.984 5.72 32.664 6.152C32.36 6.584 31.936 7.152 31.392 7.856C30.848 8.544 30.224 9.304 29.52 10.136C28.832 10.968 28.096 11.8 27.312 12.632C26.544 13.464 25.768 14.232 24.984 14.936C24.2 15.624 23.448 16.176 22.728 16.592C22.008 17.008 21.368 17.216 20.808 17.216C20.072 17.216 19.568 17.08 19.296 16.808C19.024 16.52 18.888 16.232 18.888 15.944C18.888 15.72 18.984 15.544 19.176 15.416C19.352 15.272 19.52 15.2 19.68 15.2C20.032 15.2 20.208 15.336 20.208 15.608C20.208 15.752 20.16 15.872 20.064 15.968C19.952 16.048 19.816 16.088 19.656 16.088C19.544 16.088 19.448 16.072 19.368 16.04C19.288 15.992 19.248 15.968 19.248 15.968C19.248 16.176 19.352 16.4 19.56 16.64C19.752 16.88 20.12 17 20.664 17C21.208 17 21.832 16.792 22.536 16.376C23.24 15.96 23.976 15.408 24.744 14.72C25.528 14.016 26.312 13.248 27.096 12.416C27.88 11.584 28.624 10.744 29.328 9.896C30.048 9.032 30.688 8.232 31.248 7.496C31.824 6.744 32.296 6.12 32.664 5.624C33.032 5.128 33.248 4.824 33.312 4.712C33.408 4.584 33.496 4.48 33.576 4.4C33.672 4.32 33.736 4.296 33.768 4.328C33.8 4.36 33.76 4.488 33.648 4.712C33.504 4.984 33.32 5.456 33.096 6.128C32.872 6.784 32.608 7.56 32.304 8.456C32 9.352 31.648 10.288 31.248 11.264C30.848 12.24 30.392 13.184 29.88 14.096C29.384 15.008 28.824 15.816 28.2 16.52C28.104 16.616 28.064 16.64 28.08 16.592C28.112 16.528 28.168 16.44 28.248 16.328C28.328 16.216 28.392 16.136 28.44 16.088C28.936 15.624 29.52 14.992 30.192 14.192C30.864 13.392 31.6 12.52 32.4 11.576C33.2 10.616 34.04 9.656 34.92 8.696C35.816 7.736 36.728 6.856 37.656 6.056C38.6 5.256 39.536 4.616 40.464 4.136C41.408 3.64 42.328 3.392 43.224 3.392C43.864 3.392 44.328 3.576 44.616 3.944C44.92 4.296 45.072 4.704 45.072 5.168C45.072 5.6 44.928 6.032 44.64 6.464C44.368 6.88 44.024 7.264 43.608 7.616C43.192 7.968 42.784 8.264 42.384 8.504C42 8.728 41.696 8.856 41.472 8.888C41.328 8.904 41.224 8.912 41.16 8.912C41.112 8.896 41.168 8.84 41.328 8.744C41.328 8.744 41.48 8.672 41.784 8.528C42.104 8.368 42.472 8.144 42.888 7.856C43.304 7.552 43.672 7.176 43.992 6.728C44.312 6.264 44.472 5.728 44.472 5.12C44.472 4.928 44.432 4.72 44.352 4.496C44.288 4.256 44.16 4.056 43.968 3.896C43.776 3.72 43.496 3.632 43.128 3.632C42.296 3.632 41.424 3.88 40.512 4.376C39.616 4.872 38.704 5.528 37.776 6.344C36.848 7.16 35.928 8.072 35.016 9.08C34.104 10.072 33.216 11.088 32.352 12.128C31.504 13.152 30.696 14.112 29.928 15.008C29.176 15.904 28.488 16.664 27.864 17.288ZM23.64 9.68C22.664 9.68 21.952 9.424 21.504 8.912C21.072 8.4 20.856 7.8 20.856 7.112C20.856 6.632 21 6.16 21.288 5.696C21.592 5.216 22.064 4.824 22.704 4.52C23.344 4.2 24.176 4.04 25.2 4.04C25.84 4.04 26.416 4.128 26.928 4.304C27.44 4.464 27.896 4.648 28.296 4.856C28.712 5.064 29.104 5.256 29.472 5.432C29.84 5.592 30.2 5.672 30.552 5.672C30.904 5.672 31.24 5.592 31.56 5.432C31.88 5.256 32.072 5.136 32.136 5.072C32.216 5.008 32.264 4.992 32.28 5.024C32.296 5.056 32.288 5.112 32.256 5.192C32.24 5.24 32.152 5.344 31.992 5.504C31.832 5.664 31.584 5.816 31.248 5.96C30.912 6.088 30.464 6.152 29.904 6.152C29.408 6.152 28.936 6.064 28.488 5.888C28.056 5.712 27.624 5.512 27.192 5.288C26.776 5.064 26.336 4.864 25.872 4.688C25.424 4.512 24.936 4.424 24.408 4.424C23.72 4.424 23.128 4.568 22.632 4.856C22.152 5.144 21.784 5.496 21.528 5.912C21.272 6.328 21.144 6.728 21.144 7.112C21.144 7.704 21.336 8.248 21.72 8.744C22.12 9.224 22.76 9.464 23.64 9.464C24.104 9.464 24.528 9.36 24.912 9.152C25.312 8.928 25.624 8.64 25.848 8.288C26.088 7.936 26.208 7.568 26.208 7.184C26.208 7.088 26.168 6.968 26.088 6.824C26.024 6.68 25.976 6.608 25.944 6.608C25.944 6.608 25.912 6.64 25.848 6.704C25.784 6.752 25.696 6.776 25.584 6.776C25.488 6.776 25.384 6.744 25.272 6.68C25.176 6.616 25.128 6.512 25.128 6.368C25.128 6.24 25.168 6.144 25.248 6.08C25.344 6 25.448 5.96 25.56 5.96C25.784 5.96 25.992 6.056 26.184 6.248C26.376 6.44 26.472 6.736 26.472 7.136C26.472 7.872 26.192 8.48 25.632 8.96C25.072 9.44 24.408 9.68 23.64 9.68ZM40.6226 12.8C40.5586 12.928 40.4626 13.04 40.3346 13.136C40.2226 13.232 40.1346 13.296 40.0706 13.328C40.0226 13.344 40.0386 13.296 40.1186 13.184C40.4066 12.832 40.5906 12.504 40.6706 12.2C40.7666 11.896 40.7666 11.656 40.6706 11.48C40.5906 11.288 40.4306 11.192 40.1906 11.192C39.8706 11.192 39.4946 11.32 39.0626 11.576C38.6306 11.832 38.1826 12.168 37.7186 12.584C37.2706 13 36.8466 13.448 36.4466 13.928C36.0626 14.392 35.7506 14.848 35.5106 15.296C35.2706 15.728 35.1506 16.104 35.1506 16.424C35.1506 16.664 35.1986 16.816 35.2946 16.88C35.3906 16.944 35.4866 16.976 35.5826 16.976C35.9506 16.976 36.3746 16.808 36.8546 16.472C37.3506 16.12 37.8546 15.68 38.3666 15.152C38.8786 14.624 39.3666 14.088 39.8306 13.544C40.2946 12.984 40.6946 12.48 41.0306 12.032C41.3826 11.584 41.6226 11.28 41.7506 11.12C41.9266 11.184 42.1346 11.208 42.3746 11.192C42.6306 11.176 42.8466 11.16 43.0226 11.144C42.9906 11.192 42.8226 11.392 42.5186 11.744C42.2306 12.096 41.8786 12.52 41.4626 13.016C41.0626 13.496 40.6546 13.992 40.2386 14.504C39.8386 15.016 39.5026 15.464 39.2306 15.848C38.9586 16.232 38.8226 16.488 38.8226 16.616C38.8226 16.776 38.8546 16.88 38.9186 16.928C38.9986 16.96 39.1186 16.976 39.2786 16.976C39.4706 16.96 39.7506 16.872 40.1186 16.712C40.4866 16.536 40.9586 16.2 41.5346 15.704C42.1106 15.208 42.8066 14.472 43.6226 13.496C43.6226 13.496 43.6546 13.52 43.7186 13.568C43.7986 13.616 43.8386 13.64 43.8386 13.64C42.8786 14.76 41.9906 15.64 41.1746 16.28C40.3586 16.904 39.6146 17.216 38.9426 17.216C38.5906 17.216 38.3506 17.16 38.2226 17.048C38.1106 16.936 38.0546 16.776 38.0546 16.568C38.0546 16.408 38.1186 16.216 38.2466 15.992C38.3906 15.752 38.5506 15.52 38.7266 15.296C38.9026 15.072 39.0466 14.896 39.1586 14.768C39.1586 14.768 39.1426 14.76 39.1106 14.744C39.0786 14.728 39.0626 14.72 39.0626 14.72C38.6946 15.168 38.3026 15.584 37.8866 15.968C37.4706 16.352 37.0546 16.656 36.6386 16.88C36.2386 17.104 35.8466 17.216 35.4626 17.216C35.0626 17.216 34.7826 17.12 34.6226 16.928C34.4626 16.72 34.3826 16.408 34.3826 15.992C34.3826 15.592 34.5106 15.112 34.7666 14.552C35.0226 13.976 35.3906 13.416 35.8706 12.872C36.3506 12.312 36.9266 11.848 37.5986 11.48C38.2866 11.112 39.0546 10.928 39.9026 10.928C40.3186 10.928 40.6066 11.008 40.7666 11.168C40.9266 11.312 40.9986 11.488 40.9826 11.696C40.9666 11.904 40.9186 12.112 40.8386 12.32C40.7586 12.528 40.6866 12.688 40.6226 12.8ZM48.6812 17.216C47.8332 17.216 47.4092 16.968 47.4092 16.472C47.4092 16.152 47.5132 15.808 47.7212 15.44C47.9452 15.072 48.2172 14.704 48.5372 14.336C48.8572 13.952 49.1772 13.576 49.4972 13.208C49.8332 12.84 50.1052 12.504 50.3132 12.2C50.5372 11.88 50.6492 11.608 50.6492 11.384C50.6492 11.304 50.6092 11.24 50.5292 11.192C50.4652 11.128 50.3692 11.096 50.2412 11.096C50.0492 11.096 49.7772 11.192 49.4252 11.384C49.0892 11.576 48.6572 11.904 48.1292 12.368C47.6172 12.816 47.0092 13.424 46.3052 14.192C45.6012 14.944 44.7932 15.888 43.8812 17.024C43.7372 16.992 43.5212 16.976 43.2332 16.976C42.9452 16.976 42.6972 17.008 42.4892 17.072C42.9532 16.4 43.4092 15.744 43.8572 15.104C44.3052 14.464 44.7132 13.88 45.0812 13.352C45.4652 12.824 45.7692 12.392 45.9932 12.056C46.2172 11.704 46.3292 11.488 46.3292 11.408C46.3292 11.264 46.2572 11.192 46.1132 11.192C45.9532 11.192 45.7532 11.32 45.5132 11.576C45.2732 11.816 45.0092 12.128 44.7212 12.512C44.4332 12.88 44.1372 13.256 43.8332 13.64L43.6172 13.496C43.9372 13.128 44.2492 12.744 44.5532 12.344C44.8572 11.944 45.1692 11.6 45.4892 11.312C45.8092 11.024 46.1452 10.88 46.4972 10.88C46.6732 10.88 46.8332 10.928 46.9772 11.024C47.1372 11.104 47.2172 11.24 47.2172 11.432C47.2172 11.608 47.1452 11.824 47.0012 12.08C46.8732 12.32 46.6972 12.6 46.4732 12.92C46.2492 13.224 45.9932 13.568 45.7052 13.952C45.4332 14.32 45.1452 14.72 44.8412 15.152L44.8652 15.296C45.7132 14.368 46.4252 13.616 47.0012 13.04C47.5932 12.464 48.0812 12.024 48.4652 11.72C48.8652 11.4 49.2092 11.184 49.4972 11.072C49.8012 10.944 50.0892 10.88 50.3612 10.88C50.7292 10.88 50.9932 10.96 51.1532 11.12C51.3132 11.264 51.3932 11.464 51.3932 11.72C51.3932 12.104 51.2812 12.512 51.0572 12.944C50.8332 13.36 50.5532 13.776 50.2172 14.192C49.8972 14.592 49.5692 14.968 49.2332 15.32C48.9132 15.656 48.6412 15.944 48.4172 16.184C48.1932 16.424 48.0812 16.584 48.0812 16.664C48.0812 16.76 48.1052 16.832 48.1532 16.88C48.2172 16.928 48.3692 16.952 48.6092 16.952C49.2012 16.952 49.7612 16.768 50.2892 16.4C50.8332 16.032 51.3532 15.584 51.8492 15.056C52.3452 14.512 52.8092 13.976 53.2412 13.448L53.4332 13.616C53.0012 14.128 52.5292 14.664 52.0172 15.224C51.5052 15.784 50.9692 16.256 50.4092 16.64C49.8492 17.024 49.2732 17.216 48.6812 17.216ZM58.4351 12.8C58.3711 12.928 58.2751 13.04 58.1471 13.136C58.0351 13.232 57.9471 13.296 57.8831 13.328C57.8351 13.344 57.8511 13.296 57.9311 13.184C58.2191 12.832 58.4031 12.504 58.4831 12.2C58.5791 11.896 58.5791 11.656 58.4831 11.48C58.4031 11.288 58.2431 11.192 58.0031 11.192C57.6831 11.192 57.3071 11.32 56.8751 11.576C56.4431 11.832 55.9951 12.168 55.5311 12.584C55.0831 13 54.6591 13.448 54.2591 13.928C53.8751 14.392 53.5631 14.848 53.3231 15.296C53.0831 15.728 52.9631 16.104 52.9631 16.424C52.9631 16.664 53.0111 16.816 53.1071 16.88C53.2031 16.944 53.2991 16.976 53.3951 16.976C53.7631 16.976 54.1871 16.808 54.6671 16.472C55.1631 16.12 55.6671 15.68 56.1791 15.152C56.6911 14.624 57.1791 14.088 57.6431 13.544C58.1071 12.984 58.5071 12.48 58.8431 12.032C59.1951 11.584 59.4351 11.28 59.5631 11.12C59.7391 11.184 59.9471 11.208 60.1871 11.192C60.4431 11.176 60.6591 11.16 60.8351 11.144C60.8031 11.192 60.6351 11.392 60.3311 11.744C60.0431 12.096 59.6911 12.52 59.2751 13.016C58.8751 13.496 58.4671 13.992 58.0511 14.504C57.6511 15.016 57.3151 15.464 57.0431 15.848C56.7711 16.232 56.6351 16.488 56.6351 16.616C56.6351 16.776 56.6671 16.88 56.7311 16.928C56.8111 16.96 56.9311 16.976 57.0911 16.976C57.2831 16.96 57.5631 16.872 57.9311 16.712C58.2991 16.536 58.7711 16.2 59.3471 15.704C59.9231 15.208 60.6191 14.472 61.4351 13.496C61.4351 13.496 61.4671 13.52 61.5311 13.568C61.6111 13.616 61.6511 13.64 61.6511 13.64C60.6911 14.76 59.8031 15.64 58.9871 16.28C58.1711 16.904 57.4271 17.216 56.7551 17.216C56.4031 17.216 56.1631 17.16 56.0351 17.048C55.9231 16.936 55.8671 16.776 55.8671 16.568C55.8671 16.408 55.9311 16.216 56.0591 15.992C56.2031 15.752 56.3631 15.52 56.5391 15.296C56.7151 15.072 56.8591 14.896 56.9711 14.768C56.9711 14.768 56.9551 14.76 56.9231 14.744C56.8911 14.728 56.8751 14.72 56.8751 14.72C56.5071 15.168 56.1151 15.584 55.6991 15.968C55.2831 16.352 54.8671 16.656 54.4511 16.88C54.0511 17.104 53.6591 17.216 53.2751 17.216C52.8751 17.216 52.5951 17.12 52.4351 16.928C52.2751 16.72 52.1951 16.408 52.1951 15.992C52.1951 15.592 52.3231 15.112 52.5791 14.552C52.8351 13.976 53.2031 13.416 53.6831 12.872C54.1631 12.312 54.7391 11.848 55.4111 11.48C56.0991 11.112 56.8671 10.928 57.7151 10.928C58.1311 10.928 58.4191 11.008 58.5791 11.168C58.7391 11.312 58.8111 11.488 58.7951 11.696C58.7791 11.904 58.7311 12.112 58.6511 12.32C58.5711 12.528 58.4991 12.688 58.4351 12.8Z" fill="black"/>
<path d="M9.70711 15.2929C9.07714 15.9229 9.52331 17 10.4142 17H16.238C17.1732 17 17.5966 15.8305 16.8781 15.2318L13.7016 12.5846C13.3042 12.2535 12.72 12.28 12.3543 12.6457L9.70711 15.2929Z" fill="black" stroke="black" stroke-width="0.5"/>
<path d="M5.76205 12H11.5858C12.4767 12 12.9229 13.0771 12.2929 13.7071L9.64574 16.3543C9.28002 16.72 8.69578 16.7465 8.29845 16.4154L5.12187 13.7682C4.40335 13.1695 4.82675 12 5.76205 12Z" stroke="black" stroke-width="0.5"/>
<path d="M16.75 7.5C16.75 9.29493 15.2949 10.75 13.5 10.75C11.7051 10.75 10.25 9.29493 10.25 7.5C10.25 5.70507 11.7051 4.25 13.5 4.25C15.2949 4.25 16.75 5.70507 16.75 7.5Z" stroke="black" stroke-width="0.5"/>
<path d="M11.75 7.5C11.75 9.29493 10.2949 10.75 8.5 10.75C6.70507 10.75 5.25 9.29493 5.25 7.5C5.25 5.70507 6.70507 4.25 8.5 4.25C10.2949 4.25 11.75 5.70507 11.75 7.5Z" fill="black" stroke="black" stroke-width="0.5"/>
</svg>
